<?xml version="1.0" encoding="utf-8"?>
<!-- Generator: Adobe Illustrator 22.1.0, SVG Export Plug-In . SVG Version: 6.00 Build 0)  -->
<svg version="1.1" id="Layer_1" xmlns="http://www.w3.org/2000/svg" xmlns:xlink="http://www.w3.org/1999/xlink" x="0px" y="0px"
	 viewBox="0 0 1024 1024" style="enable-background:new 0 0 1024 1024;" xml:space="preserve">
<g>
	<g>
		<path d="M897,878.7c-6.9,0-13.8,0-20.6,0c-18.7,0-37.4,0-56.2,0c-27.5,0-55.1,0-82.6,0c-33.7,0-67.5,0-101.2,0
			c-36.8,0-73.6,0-110.4,0c-37.3,0-74.6,0-111.9,0c-34.8,0-69.6,0-104.4,0c-29.4,0-58.8,0-88.2,0c-21,0-42.1,0-63.1,0
			c-10,0-20.1-0.2-30.1,0c-0.4,0-0.9,0-1.3,0c13.3,13.3,26.7,26.7,40,40c0-7.2,0-14.4,0-21.7c0-19.8,0-39.5,0-59.3
			c0-29.1,0-58.3,0-87.4c0-35.7,0-71.4,0-107.1c0-38.9,0-77.9,0-116.8c0-39.3,0-78.6,0-117.9c0-36.8,0-73.6,0-110.4
			c0-31,0-61.9,0-92.9c0-22.4,0-44.7,0-67.1c0-10.5,0.1-21.1,0-31.6c0-0.5,0-0.9,0-1.4c-13.3,13.3-26.7,26.7-40,40
			c19.9,0,39.9,0,59.8,0c47.9,0,95.7,0,143.6,0c57.9,0,115.8,0,173.7,0c50,0,100,0,150,0c24.2,0,48.4,0.4,72.5,0c0.4,0,0.7,0,1.1,0
			c-9.4-3.9-18.9-7.8-28.3-11.7c19.1,20,38.2,40.1,57.3,60.1c30.4,31.9,60.8,63.8,91.2,95.8c7,7.3,13.9,14.6,20.9,21.9
			c-3.9-9.4-7.8-18.9-11.7-28.3c0,21.2,0,42.5,0,63.7c0,50.6,0,101.2,0,151.8c0,61.1,0,122.3,0,183.4c0,52.8,0,105.7,0,158.5
			c0,25.7-0.3,51.4,0,77.1c0,0.4,0,0.7,0,1.1c0,20.9,18.4,41,40,40c21.7-1,40-17.6,40-40c0-7.7,0-15.3,0-23c0-20.5,0-40.9,0-61.4
			c0-29.3,0-58.7,0-88c0-34.7,0-69.4,0-104.1c0-36.1,0-72.3,0-108.4c0-33.6,0-67.3,0-100.9c0-27.7,0-55.4,0-83c0-17.8,0-35.5,0-53.3
			c0-4,0-8,0-11.9c0-0.6,0-1.1,0-1.7c-0.3-11.9-5.7-22-13.6-30.3c-15.8-16.6-31.5-33.1-47.3-49.7c-24.3-25.5-48.6-51-72.9-76.5
			c-15.3-16.1-30.5-32.3-46-48.2c-13.5-13.9-28.3-13.2-45-13.2c-19,0-37.9,0-56.9,0c-28.9,0-57.8,0-86.8,0c-34.6,0-69.3,0-103.9,0
			c-35.9,0-71.9,0-107.8,0c-33.3,0-66.7,0-100,0c-26.3,0-52.6,0-78.9,0c-15,0-30,0-45,0c-2,0-4,0-6,0c-21.6,0-40,18.3-40,40
			c0,7.2,0,14.4,0,21.7c0,19.8,0,39.5,0,59.3c0,29.1,0,58.3,0,87.4c0,35.7,0,71.4,0,107.1c0,38.9,0,77.9,0,116.8
			c0,39.3,0,78.6,0,117.9c0,36.8,0,73.6,0,110.4c0,31,0,61.9,0,92.9c0,22.4,0,44.7,0,67.1c0,10.5-0.1,21.1,0,31.6c0,0.5,0,0.9,0,1.4
			c0,21.6,18.3,40,40,40c6.9,0,13.8,0,20.6,0c18.7,0,37.4,0,56.2,0c27.5,0,55.1,0,82.6,0c33.7,0,67.5,0,101.2,0
			c36.8,0,73.6,0,110.4,0c37.3,0,74.6,0,111.9,0c34.8,0,69.6,0,104.4,0c29.4,0,58.8,0,88.2,0c21,0,42.1,0,63.1,0
			c10,0,20.1,0.1,30.1,0c0.4,0,0.9,0,1.3,0c20.9,0,41-18.4,40-40C936,897,919.4,878.7,897,878.7z"/>
		<path d="M717.3,65.3c-13.6,0-27.1,0-40.7,0c-32.7,0-65.5,0-98.2,0c-39.5,0-78.9,0-118.4,0c-34.3,0-68.5,0-102.8,0
			c-16.6,0-33.2-0.3-49.8,0c-0.2,0-0.5,0-0.7,0c-21.6,0-40,18.3-40,40c0,26.3,0,52.6,0,78.9c0,41.9,0,83.8,0,125.7
			c0,9.6,0,19.2,0,28.8c0,21.6,18.3,40,40,40c13.6,0,27.1,0,40.7,0c32.7,0,65.5,0,98.2,0c39.5,0,78.9,0,118.4,0
			c34.3,0,68.5,0,102.8,0c16.6,0,33.2,0.3,49.8,0c0.2,0,0.5,0,0.7,0c21.6,0,40-18.3,40-40c0-26.3,0-52.6,0-78.9
			c0-41.9,0-83.8,0-125.7c0-9.6,0-19.2,0-28.8C757.3,84.4,738.9,64.3,717.3,65.3c-21.7,1-40,17.6-40,40c0,26.3,0,52.6,0,78.9
			c0,41.9,0,83.8,0,125.7c0,9.6,0,19.2,0,28.8c13.3-13.3,26.7-26.7,40-40c-13.6,0-27.1,0-40.7,0c-32.7,0-65.5,0-98.2,0
			c-39.5,0-78.9,0-118.4,0c-34.3,0-68.5,0-102.8,0c-16.6,0-33.2-0.4-49.8,0c-0.2,0-0.5,0-0.7,0c13.3,13.3,26.7,26.7,40,40
			c0-26.3,0-52.6,0-78.9c0-41.9,0-83.8,0-125.7c0-9.6,0-19.2,0-28.8c-13.3,13.3-26.7,26.7-40,40c13.6,0,27.1,0,40.7,0
			c32.7,0,65.5,0,98.2,0c39.5,0,78.9,0,118.4,0c34.3,0,68.5,0,102.8,0c16.6,0,33.2,0.3,49.8,0c0.2,0,0.5,0,0.7,0
			c20.9,0,41-18.4,40-40C756.3,83.6,739.7,65.3,717.3,65.3z"/>
		<path d="M718.3,521.5c-13.7,0-27.4,0-41.1,0c-32.8,0-65.5,0-98.3,0c-39.8,0-79.6,0-119.4,0c-34.3,0-68.6,0-102.8,0
			c-16.8,0-33.5-0.3-50.3,0c-0.2,0-0.5,0-0.7,0c-20.9,0-41,18.4-40,40c1,21.7,17.6,40,40,40c13.7,0,27.4,0,41.1,0
			c32.8,0,65.5,0,98.3,0c39.8,0,79.6,0,119.4,0c34.3,0,68.6,0,102.8,0c16.8,0,33.5,0.3,50.3,0c0.2,0,0.5,0,0.7,0
			c20.9,0,41-18.4,40-40C757.3,539.8,740.7,521.5,718.3,521.5L718.3,521.5z"/>
		<path d="M305.7,790.9c13.7,0,27.4,0,41.1,0c32.8,0,65.5,0,98.3,0c39.8,0,79.6,0,119.4,0c34.3,0,68.6,0,102.8,0
			c16.8,0,33.5,0.3,50.3,0c0.2,0,0.5,0,0.7,0c20.9,0,41-18.4,40-40c-1-21.7-17.6-40-40-40c-13.7,0-27.4,0-41.1,0
			c-32.8,0-65.5,0-98.3,0c-39.8,0-79.6,0-119.4,0c-34.3,0-68.6,0-102.8,0c-16.8,0-33.5-0.3-50.3,0c-0.2,0-0.5,0-0.7,0
			c-20.9,0-41,18.4-40,40C266.7,772.6,283.3,790.9,305.7,790.9L305.7,790.9z"/>
	</g>
</g>
</svg>
