<?xml version="1.0" encoding="utf-8"?>
<!-- Generator: Adobe Illustrator 22.1.0, SVG Export Plug-In . SVG Version: 6.00 Build 0)  -->
<svg version="1.1" id="Layer_1" xmlns="http://www.w3.org/2000/svg" xmlns:xlink="http://www.w3.org/1999/xlink" x="0px" y="0px"
	 viewBox="0 0 1024 1024" style="enable-background:new 0 0 1024 1024;" xml:space="preserve">
<style type="text/css">
	.st0{display:none;}
	.st1{display:inline;}
	.st2{fill:#92C7BB;}
</style>
<title>icon-01</title>
<path d="M952.7,967.1H71.3c-8,0-14.4-6.4-14.4-14.4V470.2c0-8,6.4-14.4,14.4-14.4h85c8,0,14.4,6.4,14.4,14.4v383.2h682.7V470.2
	c0-8,6.4-14.4,14.4-14.4h85c8,0,14.4,6.4,14.4,14.4l0,482.5C967.1,960.7,960.7,967.1,952.7,967.1z M192,395.6
	c-7.5,0-11.1-9.3-5.5-14.3l0.4-0.4L502.4,97.6c5.5-4.9,13.7-4.9,19.2,0l317.3,283.6v0c5.7,5.1,2.1,14.4-5.5,14.4h-7.1H192L192,395.6
	z"/>
<path d="M366,293.1h291v366.6c0,8-6.4,14.4-14.4,14.4H380.4c-8,0-14.4-6.4-14.4-14.4V293.1z"/>
<g id="Page-1" class="st0">
	<g id="COTC_Etch_iPad" transform="translate(-174.000000, -197.000000)" class="st1">
		<g id="noun_Upload_707344_000000" transform="translate(174.000000, 197.000000)">
			<path id="Shape" class="st2" d="M505.6,95.2L187.1,379.3c-2.8,2.4-3.7,6.4-2.4,9.8c1.3,3.4,4.6,5.7,8.3,5.7H366v261.9
				c0,10.1,8.1,18.3,18.2,18.3h254.6c10.1,0,18.2-8.2,18.2-18.3V394.9h173.1c3.7,0,7-2.3,8.3-5.7c0.4-1,0.6-2.1,0.6-3.1
				c0-2.5-1-4.9-3-6.6L517.4,95.2C514,92.2,509,92.2,505.6,95.2z"/>
			<path id="Shape_1_" class="st2" d="M947.3,456.8l-70.9,0c-10.4,0-18.9,10.2-18.9,22.7V857l-681.3,0V479.5
				c0-12.6-8.5-22.7-18.9-22.7H75.7c-10.4,0-18.9,10.2-18.9,22.7v463.8c0,12.5,8.5,22.7,18.9,22.7h871.6c10.4,0,18.9-10.2,18.9-22.7
				V479.5C966.3,467,957.8,456.8,947.3,456.8z"/>
		</g>
	</g>
</g>
</svg>
